<?xml version="1.0" encoding="UTF-8" standalone="no"?>
<!-- Created with Inkscape (http://www.inkscape.org/) -->

<svg
   xmlns:dc="http://purl.org/dc/elements/1.1/"
   xmlns:cc="http://creativecommons.org/ns#"
   xmlns:rdf="http://www.w3.org/1999/02/22-rdf-syntax-ns#"
   xmlns:svg="http://www.w3.org/2000/svg"
   xmlns="http://www.w3.org/2000/svg"
   xmlns:sodipodi="http://sodipodi.sourceforge.net/DTD/sodipodi-0.dtd"
   xmlns:inkscape="http://www.inkscape.org/namespaces/inkscape"
   width="64"
   height="64"
   viewBox="0 0 63.999999 63.999999"
   id="svg2"
   version="1.1"
   inkscape:version="0.48.4 r9939"
   sodipodi:docname="recordicon.svg">
  <defs
     id="defs4">
    <filter
       inkscape:collect="always"
       style="color-interpolation-filters:sRGB"
       id="filter4163"
       x="-0.012"
       width="1.024"
       y="-0.012"
       height="1.024">
      <feGaussianBlur
         inkscape:collect="always"
         stdDeviation="0.24105965"
         id="feGaussianBlur4165" />
    </filter>
  </defs>
  <sodipodi:namedview
     id="base"
     pagecolor="#ffffff"
     bordercolor="#666666"
     borderopacity="1.0"
     inkscape:pageopacity="0.0"
     inkscape:pageshadow="2"
     inkscape:zoom="8.46875"
     inkscape:cx="17.594096"
     inkscape:cy="32"
     inkscape:document-units="px"
     inkscape:current-layer="layer1"
     showgrid="false"
     units="px"
     inkscape:window-width="1366"
     inkscape:window-height="719"
     inkscape:window-x="0"
     inkscape:window-y="25"
     inkscape:window-maximized="1" />
  <metadata
     id="metadata7">
    <rdf:RDF>
      <cc:Work
         rdf:about="">
        <dc:format>image/svg+xml</dc:format>
        <dc:type
           rdf:resource="http://purl.org/dc/dcmitype/StillImage" />
        <dc:title />
      </cc:Work>
    </rdf:RDF>
  </metadata>
  <g
     inkscape:label="Layer 1"
     inkscape:groupmode="layer"
     id="layer1"
     transform="translate(0,-988.3622)">
    <circle
       style="fill:#000000;stroke:#ff0000;stroke-width:0.78295106;stroke-miterlimit:4;stroke-dasharray:none;filter:url(#filter4163)"
       id="path3361"
       cx="31.841782"
       cy="1020.0457"
       r="24.105965"
       transform="matrix(1.1105671,0,0,1.1105671,-3.3624356,-116.62037)"
       d="m 55.947746,1020.0457 c 0,13.3134 -10.792608,24.106 -24.105964,24.106 -13.313357,0 -24.105965,-10.7926 -24.105965,-24.106 0,-13.3133 10.792608,-24.10595 24.105965,-24.10595 13.313356,0 24.105964,10.79265 24.105964,24.10595 z"
       sodipodi:cx="31.841782"
       sodipodi:cy="1020.0457"
       sodipodi:rx="24.105965"
       sodipodi:ry="24.105965" />
    <circle
       style="fill:#ff0000;stroke:none;stroke-width:1;stroke-miterlimit:4;stroke-dasharray:none"
       id="path4173"
       cx="32.035522"
       cy="1016.2089"
       r="10.043007"
       d="m 42.078529,1016.2089 c 0,5.5466 -4.496407,10.043 -10.043007,10.043 -5.546599,0 -10.043006,-4.4964 -10.043006,-10.043 0,-5.5466 4.496407,-10.043 10.043006,-10.043 5.5466,0 10.043007,4.4964 10.043007,10.043 z" />
    <circle
       style="fill:#000000;stroke:none;stroke-width:1;stroke-miterlimit:4;stroke-dasharray:none"
       id="path4169"
       cx="32.035522"
       cy="1016.2089"
       r="1.2381788"
       d="m 33.273701,1016.2089 c 0,0.6839 -0.554351,1.2382 -1.238179,1.2382 -0.683827,0 -1.238178,-0.5543 -1.238178,-1.2382 0,-0.6838 0.554351,-1.2382 1.238178,-1.2382 0.683828,0 1.238179,0.5544 1.238179,1.2382 z" />
    <text
       xml:space="preserve"
       style="font-size:13.90100861px;font-style:normal;font-variant:normal;font-weight:500;font-stretch:normal;line-height:125%;letter-spacing:0px;word-spacing:0px;fill:#000000;fill-opacity:1;stroke:none;font-family:Big Caslon;-inkscape-font-specification:Big Caslon Medium"
       x="22.660357"
       y="1026.7799"
       id="text4183"
       sodipodi:linespacing="125%"
       transform="scale(1.0054575,0.99457213)"><tspan
         sodipodi:role="line"
         id="tspan4185"
         x="22.660357"
         y="1026.7799">R8</tspan></text>
    <text
       xml:space="preserve"
       style="font-style:normal;font-variant:normal;font-weight:500;font-stretch:normal;font-size:4.34759855px;line-height:125%;font-family:'Big Caslon';-inkscape-font-specification:'Big Caslon Medium';letter-spacing:0px;word-spacing:0px;fill:#000000;fill-opacity:1;stroke:none;stroke-width:1px;stroke-linecap:butt;stroke-linejoin:miter;stroke-opacity:1"
       x="36.579018"
       y="1016.828"
       id="text4140"
       sodipodi:linespacing="125%"><tspan
         sodipodi:role="line"
         id="tspan4142"
         x="36.579018"
         y="1016.828" /></text>
    <circle
       style="fill:none;stroke:#333333;stroke-width:0.43475986;stroke-miterlimit:4;stroke-dasharray:none"
       id="path4148"
       cx="32.035522"
       cy="1016.2089"
       r="14.991132"
       d="m 47.026654,1016.2089 c 0,8.2794 -6.711758,14.9912 -14.991132,14.9912 -8.279373,0 -14.991131,-6.7118 -14.991131,-14.9912 0,-8.2794 6.711758,-14.9911 14.991131,-14.9911 8.279374,0 14.991132,6.7117 14.991132,14.9911 z" />
    <circle
       style="fill:none;stroke:#333333;stroke-width:0.65213978;stroke-miterlimit:4;stroke-dasharray:none"
       id="path4150"
       cx="32.035522"
       cy="1016.2089"
       r="17.506472"
       d="m 49.541994,1016.2089 c 0,9.6686 -7.837914,17.5065 -17.506472,17.5065 -9.668557,0 -17.506471,-7.8379 -17.506471,-17.5065 0,-9.6685 7.837914,-17.50645 17.506471,-17.50645 9.668558,0 17.506472,7.83795 17.506472,17.50645 z" />
    <circle
       style="fill:none;stroke:#333333;stroke-width:0.43475986;stroke-miterlimit:4;stroke-dasharray:none"
       id="path4152"
       cx="32.035522"
       cy="1016.2089"
       r="20.326769"
       d="m 52.362291,1016.2089 c 0,11.2262 -9.100604,20.3268 -20.326769,20.3268 -11.226164,0 -20.326768,-9.1006 -20.326768,-20.3268 0,-11.2261 9.100604,-20.32675 20.326768,-20.32675 11.226165,0 20.326769,9.10065 20.326769,20.32675 z" />
    <circle
       style="fill:none;stroke:#333333;stroke-width:0.65213978;stroke-miterlimit:4;stroke-dasharray:none"
       id="path4156"
       cx="32.035522"
       cy="1016.2089"
       r="23.250246"
       d="m 55.285769,1016.2089 c 0,12.8408 -10.40949,23.2503 -23.250247,23.2503 -12.840756,0 -23.2502456,-10.4095 -23.2502456,-23.2503 0,-12.8407 10.4094896,-23.25022 23.2502456,-23.25022 12.840757,0 23.250247,10.40952 23.250247,23.25022 z" />
    <text
       xml:space="preserve"
       style="font-size:14.13695335000000064px;font-style:normal;font-variant:normal;font-weight:500;font-stretch:normal;line-height:125%;letter-spacing:0px;word-spacing:0px;fill:#ffffff;fill-opacity:1;stroke:none;font-family:Big Caslon;-inkscape-font-specification:Big Caslon Medium"
       x="-1.2369611"
       y="1487.2743"
       id="text4190"
       sodipodi:linespacing="125%"
       transform="scale(1.4136953,0.707366)"><tspan
         sodipodi:role="line"
         id="tspan4192"
         x="-1.2369611"
         y="1487.2743">ENTER</tspan></text>
  </g>
</svg>
