<svg xmlns="http://www.w3.org/2000/svg" width="48" height="48" viewBox="0 0 12.7 12.7" id="svg8">
  <g id="layer1" transform="translate(0 -284.3)">
    <path d="M.059 0v48.355h48.296V0H.06zm38.466 18.383c2.954 0 5.008.48 6.163 1.44l-1.077 3.171c-.486-.352-1.226-.691-2.222-1.02-.997-.328-1.921-.492-2.772-.492-1.24 0-2.218.352-2.935 1.057-.705.705-1.057 1.611-1.057 2.717 0 .68.128 1.3.383 1.86a3.927 3.927 0 0 0 1.056 1.402c.462.376 1.4.905 2.809 1.586l2.188 1.039c1.822.862 3.099 1.896 3.828 3.1.741 1.19 1.111 2.709 1.111 4.556 0 2.005-.808 3.708-2.424 5.105C41.972 45.302 39.821 46 37.123 46c-2.37 0-4.393-.56-6.07-1.678l1.33-3.353c.68.498 1.524.917 2.533 1.258 1.02.328 1.932.492 2.734.492 1.422 0 2.565-.388 3.428-1.166.863-.778 1.295-1.77 1.295-2.973 0-.9-.244-1.73-.73-2.496-.474-.778-1.678-1.624-3.61-2.535l-2.15-1.002c-1.823-.85-3.1-1.859-3.828-3.026-.717-1.166-1.076-2.57-1.076-4.21 0-1.994.705-3.647 2.115-4.96 1.41-1.312 3.22-1.968 5.431-1.968zm-15.384.455h3.646v16.734c0 3.646-.59 6.284-1.77 7.912-1.178 1.617-3.275 2.424-6.288 2.424-1.738 0-3.166-.516-4.284-1.549-1.106-1.033-1.713-2.418-1.822-4.156h3.19c.291 1.616 1.257 2.424 2.898 2.424 1.628 0 2.771-.346 3.428-1.04.668-.704 1.002-2.66 1.002-5.868V18.838z" transform="matrix(.26458 0 0 .26458 0 284.3)" id="rect3757"/>
    <text style="line-height:1.25;-inkscape-font-specification:'Berlin Sans FB Demi'" x="-152.702" y="160.929" id="text21" font-weight="400" font-size="4.233" font-family="Berlin Sans FB Demi" letter-spacing="0" word-spacing="0" stroke-width=".265"/>
    <text style="line-height:1.25;-inkscape-font-specification:'Impact Condensed'" x="-171.601" y="82.31" id="text29" font-weight="400" font-stretch="condensed" font-size="50.8" font-family="Impact" letter-spacing="0" word-spacing="0" stroke-width=".265"/>
    <text style="line-height:1.25;-inkscape-font-specification:Impact" x="-304.649" y="59.631" id="text41" font-weight="400" font-size="50.8" font-family="Impact" letter-spacing="0" word-spacing="0" stroke-width=".265"/>
    <text style="line-height:1.25;-inkscape-font-specification:monospace" x="-200.327" y="199.482" id="text49" font-weight="400" font-size="9.878" font-family="monospace" letter-spacing="0" word-spacing="0" stroke-width=".265"/>
    <text style="line-height:1.25;-inkscape-font-specification:'MS Reference Sans Serif'" x="-444.5" y="-27.304" id="text3727" font-weight="400" font-size="50.8" font-family="MS Reference Sans Serif" letter-spacing="0" word-spacing="0" stroke-width=".265"/>
    <text style="line-height:1.25;-inkscape-font-specification:serif" x="-455.839" y="9.738" id="text3743" font-weight="400" font-size="50.8" font-family="serif" letter-spacing="0" word-spacing="0" stroke-width=".265"/>
    <text style="line-height:1.25;-inkscape-font-specification:'Trebuchet MS'" x="-330.351" y="219.137" id="text3747" font-weight="400" font-size="50.8" font-family="Trebuchet MS" letter-spacing="0" word-spacing="0" stroke-width=".265"/>
  </g>
</svg>
